<svg xmlns="http://www.w3.org/2000/svg" version="1.1" width="500" height="500">
<rect x="0" y="0" width="500" height="500" style="stroke:#000;fill:none" />
<line x1="250" y1="275" x2="250" y2="255" style="stroke:Black" />
<line x1="250" y1="255" x2="232" y2="263" style="stroke:Black" />
<line x1="232" y1="263" x2="247" y2="276" style="stroke:Black" />
<line x1="232" y1="263" x2="232" y2="243" style="stroke:Black" />
<line x1="250" y1="255" x2="268" y2="263" style="stroke:Black" />
<line x1="268" y1="263" x2="268" y2="243" style="stroke:Black" />
<line x1="268" y1="263" x2="253" y2="276" style="stroke:Black" />
<line x1="250" y1="225" x2="250" y2="205" style="stroke:Black" />
<line x1="250" y1="205" x2="232" y2="213" style="stroke:Black" />
<line x1="232" y1="213" x2="247" y2="226" style="stroke:Black" />
<line x1="232" y1="213" x2="232" y2="193" style="stroke:Black" />
<line x1="250" y1="205" x2="268" y2="213" style="stroke:Black" />
<line x1="268" y1="213" x2="268" y2="193" style="stroke:Black" />
<line x1="268" y1="213" x2="253" y2="226" style="stroke:Black" />
<line x1="228" y1="237" x2="211" y2="227" style="stroke:Black" />
<line x1="211" y1="227" x2="209" y2="247" style="stroke:Black" />
<line x1="209" y1="247" x2="228" y2="241" style="stroke:Black" />
<line x1="209" y1="247" x2="192" y2="237" style="stroke:Black" />
<line x1="211" y1="227" x2="227" y2="216" style="stroke:Black" />
<line x1="227" y1="216" x2="210" y2="206" style="stroke:Black" />
<line x1="227" y1="216" x2="231" y2="235" style="stroke:Black" />
<line x1="228" y1="262" x2="211" y2="272" style="stroke:Black" />
<line x1="211" y1="272" x2="227" y2="284" style="stroke:Black" />
<line x1="227" y1="284" x2="231" y2="265" style="stroke:Black" />
<line x1="227" y1="284" x2="210" y2="294" style="stroke:Black" />
<line x1="211" y1="272" x2="209" y2="253" style="stroke:Black" />
<line x1="209" y1="253" x2="192" y2="263" style="stroke:Black" />
<line x1="209" y1="253" x2="228" y2="259" style="stroke:Black" />
<line x1="250" y1="275" x2="250" y2="295" style="stroke:Black" />
<line x1="250" y1="295" x2="268" y2="287" style="stroke:Black" />
<line x1="268" y1="287" x2="253" y2="274" style="stroke:Black" />
<line x1="268" y1="287" x2="268" y2="307" style="stroke:Black" />
<line x1="250" y1="295" x2="232" y2="287" style="stroke:Black" />
<line x1="232" y1="287" x2="232" y2="307" style="stroke:Black" />
<line x1="232" y1="287" x2="247" y2="274" style="stroke:Black" />
<line x1="272" y1="263" x2="289" y2="273" style="stroke:Black" />
<line x1="289" y1="273" x2="291" y2="253" style="stroke:Black" />
<line x1="291" y1="253" x2="272" y2="259" style="stroke:Black" />
<line x1="291" y1="253" x2="308" y2="263" style="stroke:Black" />
<line x1="289" y1="273" x2="273" y2="284" style="stroke:Black" />
<line x1="273" y1="284" x2="290" y2="294" style="stroke:Black" />
<line x1="273" y1="284" x2="269" y2="265" style="stroke:Black" />
<line x1="272" y1="238" x2="289" y2="228" style="stroke:Black" />
<line x1="289" y1="228" x2="273" y2="216" style="stroke:Black" />
<line x1="273" y1="216" x2="269" y2="235" style="stroke:Black" />
<line x1="273" y1="216" x2="290" y2="206" style="stroke:Black" />
<line x1="289" y1="228" x2="291" y2="247" style="stroke:Black" />
<line x1="291" y1="247" x2="308" y2="237" style="stroke:Black" />
<line x1="291" y1="247" x2="272" y2="241" style="stroke:Black" />
<line x1="250" y1="175" x2="250" y2="155" style="stroke:Black" />
<line x1="250" y1="155" x2="232" y2="163" style="stroke:Black" />
<line x1="232" y1="163" x2="247" y2="176" style="stroke:Black" />
<line x1="232" y1="163" x2="232" y2="143" style="stroke:Black" />
<line x1="250" y1="155" x2="268" y2="163" style="stroke:Black" />
<line x1="268" y1="163" x2="268" y2="143" style="stroke:Black" />
<line x1="268" y1="163" x2="253" y2="176" style="stroke:Black" />
<line x1="213" y1="185" x2="203" y2="168" style="stroke:Black" />
<line x1="203" y1="168" x2="191" y2="184" style="stroke:Black" />
<line x1="191" y1="184" x2="210" y2="187" style="stroke:Black" />
<line x1="191" y1="184" x2="181" y2="166" style="stroke:Black" />
<line x1="203" y1="168" x2="222" y2="166" style="stroke:Black" />
<line x1="222" y1="166" x2="212" y2="148" style="stroke:Black" />
<line x1="222" y1="166" x2="216" y2="184" style="stroke:Black" />
<line x1="185" y1="212" x2="168" y2="202" style="stroke:Black" />
<line x1="168" y1="202" x2="166" y2="222" style="stroke:Black" />
<line x1="166" y1="222" x2="184" y2="216" style="stroke:Black" />
<line x1="166" y1="222" x2="148" y2="212" style="stroke:Black" />
<line x1="168" y1="202" x2="184" y2="191" style="stroke:Black" />
<line x1="184" y1="191" x2="166" y2="181" style="stroke:Black" />
<line x1="184" y1="191" x2="187" y2="210" style="stroke:Black" />
<line x1="175" y1="250" x2="155" y2="250" style="stroke:Black" />
<line x1="155" y1="250" x2="163" y2="268" style="stroke:Black" />
<line x1="163" y1="268" x2="176" y2="253" style="stroke:Black" />
<line x1="163" y1="268" x2="143" y2="268" style="stroke:Black" />
<line x1="155" y1="250" x2="163" y2="232" style="stroke:Black" />
<line x1="163" y1="232" x2="143" y2="232" style="stroke:Black" />
<line x1="163" y1="232" x2="176" y2="247" style="stroke:Black" />
<line x1="185" y1="287" x2="168" y2="297" style="stroke:Black" />
<line x1="168" y1="297" x2="184" y2="309" style="stroke:Black" />
<line x1="184" y1="309" x2="187" y2="290" style="stroke:Black" />
<line x1="184" y1="309" x2="166" y2="319" style="stroke:Black" />
<line x1="168" y1="297" x2="166" y2="278" style="stroke:Black" />
<line x1="166" y1="278" x2="148" y2="288" style="stroke:Black" />
<line x1="166" y1="278" x2="184" y2="284" style="stroke:Black" />
<line x1="212" y1="315" x2="202" y2="332" style="stroke:Black" />
<line x1="202" y1="332" x2="222" y2="334" style="stroke:Black" />
<line x1="222" y1="334" x2="216" y2="316" style="stroke:Black" />
<line x1="222" y1="334" x2="212" y2="352" style="stroke:Black" />
<line x1="202" y1="332" x2="191" y2="316" style="stroke:Black" />
<line x1="191" y1="316" x2="181" y2="334" style="stroke:Black" />
<line x1="191" y1="316" x2="210" y2="313" style="stroke:Black" />
<line x1="250" y1="325" x2="250" y2="345" style="stroke:Black" />
<line x1="250" y1="345" x2="268" y2="337" style="stroke:Black" />
<line x1="268" y1="337" x2="253" y2="324" style="stroke:Black" />
<line x1="268" y1="337" x2="268" y2="357" style="stroke:Black" />
<line x1="250" y1="345" x2="232" y2="337" style="stroke:Black" />
<line x1="232" y1="337" x2="232" y2="357" style="stroke:Black" />
<line x1="232" y1="337" x2="247" y2="324" style="stroke:Black" />
<line x1="287" y1="315" x2="297" y2="332" style="stroke:Black" />
<line x1="297" y1="332" x2="309" y2="316" style="stroke:Black" />
<line x1="309" y1="316" x2="290" y2="313" style="stroke:Black" />
<line x1="309" y1="316" x2="319" y2="334" style="stroke:Black" />
<line x1="297" y1="332" x2="278" y2="334" style="stroke:Black" />
<line x1="278" y1="334" x2="288" y2="352" style="stroke:Black" />
<line x1="278" y1="334" x2="284" y2="316" style="stroke:Black" />
<line x1="315" y1="288" x2="332" y2="298" style="stroke:Black" />
<line x1="332" y1="298" x2="334" y2="278" style="stroke:Black" />
<line x1="334" y1="278" x2="316" y2="284" style="stroke:Black" />
<line x1="334" y1="278" x2="352" y2="288" style="stroke:Black" />
<line x1="332" y1="298" x2="316" y2="309" style="stroke:Black" />
<line x1="316" y1="309" x2="334" y2="319" style="stroke:Black" />
<line x1="316" y1="309" x2="313" y2="290" style="stroke:Black" />
<line x1="325" y1="250" x2="345" y2="250" style="stroke:Black" />
<line x1="345" y1="250" x2="337" y2="232" style="stroke:Black" />
<line x1="337" y1="232" x2="324" y2="247" style="stroke:Black" />
<line x1="337" y1="232" x2="357" y2="232" style="stroke:Black" />
<line x1="345" y1="250" x2="337" y2="268" style="stroke:Black" />
<line x1="337" y1="268" x2="357" y2="268" style="stroke:Black" />
<line x1="337" y1="268" x2="324" y2="253" style="stroke:Black" />
<line x1="315" y1="213" x2="332" y2="203" style="stroke:Black" />
<line x1="332" y1="203" x2="316" y2="191" style="stroke:Black" />
<line x1="316" y1="191" x2="313" y2="210" style="stroke:Black" />
<line x1="316" y1="191" x2="334" y2="181" style="stroke:Black" />
<line x1="332" y1="203" x2="334" y2="222" style="stroke:Black" />
<line x1="334" y1="222" x2="352" y2="212" style="stroke:Black" />
<line x1="334" y1="222" x2="316" y2="216" style="stroke:Black" />
<line x1="288" y1="185" x2="298" y2="168" style="stroke:Black" />
<line x1="298" y1="168" x2="278" y2="166" style="stroke:Black" />
<line x1="278" y1="166" x2="284" y2="184" style="stroke:Black" />
<line x1="278" y1="166" x2="288" y2="148" style="stroke:Black" />
<line x1="298" y1="168" x2="309" y2="184" style="stroke:Black" />
<line x1="309" y1="184" x2="319" y2="166" style="stroke:Black" />
<line x1="309" y1="184" x2="290" y2="187" style="stroke:Black" />
<line x1="250" y1="125" x2="250" y2="105" style="stroke:Black" />
<line x1="250" y1="105" x2="232" y2="113" style="stroke:Black" />
<line x1="232" y1="113" x2="247" y2="126" style="stroke:Black" />
<line x1="232" y1="113" x2="232" y2="93" style="stroke:Black" />
<line x1="250" y1="105" x2="268" y2="113" style="stroke:Black" />
<line x1="268" y1="113" x2="268" y2="93" style="stroke:Black" />
<line x1="268" y1="113" x2="253" y2="126" style="stroke:Black" />
<line x1="207" y1="133" x2="200" y2="114" style="stroke:Black" />
<line x1="200" y1="114" x2="186" y2="127" style="stroke:Black" />
<line x1="186" y1="127" x2="205" y2="135" style="stroke:Black" />
<line x1="186" y1="127" x2="179" y2="109" style="stroke:Black" />
<line x1="200" y1="114" x2="220" y2="115" style="stroke:Black" />
<line x1="220" y1="115" x2="213" y2="96" style="stroke:Black" />
<line x1="220" y1="115" x2="210" y2="132" style="stroke:Black" />
<line x1="170" y1="154" x2="157" y2="139" style="stroke:Black" />
<line x1="157" y1="139" x2="148" y2="157" style="stroke:Black" />
<line x1="148" y1="157" x2="168" y2="157" style="stroke:Black" />
<line x1="148" y1="157" x2="135" y2="141" style="stroke:Black" />
<line x1="157" y1="139" x2="176" y2="133" style="stroke:Black" />
<line x1="176" y1="133" x2="163" y2="118" style="stroke:Black" />
<line x1="176" y1="133" x2="173" y2="153" style="stroke:Black" />
<line x1="142" y1="187" x2="124" y2="177" style="stroke:Black" />
<line x1="124" y1="177" x2="122" y2="197" style="stroke:Black" />
<line x1="122" y1="197" x2="141" y2="191" style="stroke:Black" />
<line x1="122" y1="197" x2="105" y2="187" style="stroke:Black" />
<line x1="124" y1="177" x2="140" y2="166" style="stroke:Black" />
<line x1="140" y1="166" x2="123" y2="156" style="stroke:Black" />
<line x1="140" y1="166" x2="144" y2="185" style="stroke:Black" />
<line x1="127" y1="228" x2="107" y2="225" style="stroke:Black" />
<line x1="107" y1="225" x2="112" y2="244" style="stroke:Black" />
<line x1="112" y1="244" x2="127" y2="231" style="stroke:Black" />
<line x1="112" y1="244" x2="92" y2="240" style="stroke:Black" />
<line x1="107" y1="225" x2="118" y2="208" style="stroke:Black" />
<line x1="118" y1="208" x2="99" y2="205" style="stroke:Black" />
<line x1="118" y1="208" x2="128" y2="226" style="stroke:Black" />
<line x1="127" y1="272" x2="107" y2="275" style="stroke:Black" />
<line x1="107" y1="275" x2="118" y2="292" style="stroke:Black" />
<line x1="118" y1="292" x2="128" y2="274" style="stroke:Black" />
<line x1="118" y1="292" x2="99" y2="295" style="stroke:Black" />
<line x1="107" y1="275" x2="112" y2="256" style="stroke:Black" />
<line x1="112" y1="256" x2="92" y2="260" style="stroke:Black" />
<line x1="112" y1="256" x2="127" y2="269" style="stroke:Black" />
<line x1="142" y1="312" x2="124" y2="323" style="stroke:Black" />
<line x1="124" y1="323" x2="140" y2="334" style="stroke:Black" />
<line x1="140" y1="334" x2="144" y2="315" style="stroke:Black" />
<line x1="140" y1="334" x2="123" y2="344" style="stroke:Black" />
<line x1="124" y1="323" x2="122" y2="303" style="stroke:Black" />
<line x1="122" y1="303" x2="105" y2="313" style="stroke:Black" />
<line x1="122" y1="303" x2="141" y2="309" style="stroke:Black" />
<line x1="170" y1="346" x2="157" y2="361" style="stroke:Black" />
<line x1="157" y1="361" x2="176" y2="367" style="stroke:Black" />
<line x1="176" y1="367" x2="173" y2="347" style="stroke:Black" />
<line x1="176" y1="367" x2="163" y2="382" style="stroke:Black" />
<line x1="157" y1="361" x2="148" y2="343" style="stroke:Black" />
<line x1="148" y1="343" x2="135" y2="359" style="stroke:Black" />
<line x1="148" y1="343" x2="168" y2="343" style="stroke:Black" />
<line x1="207" y1="367" x2="200" y2="386" style="stroke:Black" />
<line x1="200" y1="386" x2="220" y2="385" style="stroke:Black" />
<line x1="220" y1="385" x2="210" y2="368" style="stroke:Black" />
<line x1="220" y1="385" x2="213" y2="404" style="stroke:Black" />
<line x1="200" y1="386" x2="186" y2="373" style="stroke:Black" />
<line x1="186" y1="373" x2="179" y2="391" style="stroke:Black" />
<line x1="186" y1="373" x2="205" y2="365" style="stroke:Black" />
<line x1="250" y1="375" x2="250" y2="395" style="stroke:Black" />
<line x1="250" y1="395" x2="268" y2="387" style="stroke:Black" />
<line x1="268" y1="387" x2="253" y2="374" style="stroke:Black" />
<line x1="268" y1="387" x2="268" y2="407" style="stroke:Black" />
<line x1="250" y1="395" x2="232" y2="387" style="stroke:Black" />
<line x1="232" y1="387" x2="232" y2="407" style="stroke:Black" />
<line x1="232" y1="387" x2="247" y2="374" style="stroke:Black" />
<line x1="293" y1="367" x2="300" y2="386" style="stroke:Black" />
<line x1="300" y1="386" x2="314" y2="373" style="stroke:Black" />
<line x1="314" y1="373" x2="295" y2="365" style="stroke:Black" />
<line x1="314" y1="373" x2="321" y2="391" style="stroke:Black" />
<line x1="300" y1="386" x2="280" y2="385" style="stroke:Black" />
<line x1="280" y1="385" x2="287" y2="404" style="stroke:Black" />
<line x1="280" y1="385" x2="290" y2="368" style="stroke:Black" />
<line x1="330" y1="346" x2="343" y2="361" style="stroke:Black" />
<line x1="343" y1="361" x2="352" y2="343" style="stroke:Black" />
<line x1="352" y1="343" x2="332" y2="343" style="stroke:Black" />
<line x1="352" y1="343" x2="365" y2="359" style="stroke:Black" />
<line x1="343" y1="361" x2="324" y2="367" style="stroke:Black" />
<line x1="324" y1="367" x2="337" y2="382" style="stroke:Black" />
<line x1="324" y1="367" x2="327" y2="347" style="stroke:Black" />
<line x1="358" y1="313" x2="376" y2="323" style="stroke:Black" />
<line x1="376" y1="323" x2="378" y2="303" style="stroke:Black" />
<line x1="378" y1="303" x2="359" y2="309" style="stroke:Black" />
<line x1="378" y1="303" x2="395" y2="313" style="stroke:Black" />
<line x1="376" y1="323" x2="360" y2="334" style="stroke:Black" />
<line x1="360" y1="334" x2="377" y2="344" style="stroke:Black" />
<line x1="360" y1="334" x2="356" y2="315" style="stroke:Black" />
<line x1="373" y1="272" x2="393" y2="275" style="stroke:Black" />
<line x1="393" y1="275" x2="388" y2="256" style="stroke:Black" />
<line x1="388" y1="256" x2="373" y2="269" style="stroke:Black" />
<line x1="388" y1="256" x2="408" y2="260" style="stroke:Black" />
<line x1="393" y1="275" x2="382" y2="292" style="stroke:Black" />
<line x1="382" y1="292" x2="401" y2="295" style="stroke:Black" />
<line x1="382" y1="292" x2="372" y2="274" style="stroke:Black" />
<line x1="373" y1="228" x2="393" y2="225" style="stroke:Black" />
<line x1="393" y1="225" x2="382" y2="208" style="stroke:Black" />
<line x1="382" y1="208" x2="372" y2="226" style="stroke:Black" />
<line x1="382" y1="208" x2="401" y2="205" style="stroke:Black" />
<line x1="393" y1="225" x2="388" y2="244" style="stroke:Black" />
<line x1="388" y1="244" x2="408" y2="240" style="stroke:Black" />
<line x1="388" y1="244" x2="373" y2="231" style="stroke:Black" />
<line x1="358" y1="188" x2="376" y2="177" style="stroke:Black" />
<line x1="376" y1="177" x2="360" y2="166" style="stroke:Black" />
<line x1="360" y1="166" x2="356" y2="185" style="stroke:Black" />
<line x1="360" y1="166" x2="377" y2="156" style="stroke:Black" />
<line x1="376" y1="177" x2="378" y2="197" style="stroke:Black" />
<line x1="378" y1="197" x2="395" y2="187" style="stroke:Black" />
<line x1="378" y1="197" x2="359" y2="191" style="stroke:Black" />
<line x1="330" y1="154" x2="343" y2="139" style="stroke:Black" />
<line x1="343" y1="139" x2="324" y2="133" style="stroke:Black" />
<line x1="324" y1="133" x2="327" y2="153" style="stroke:Black" />
<line x1="324" y1="133" x2="337" y2="118" style="stroke:Black" />
<line x1="343" y1="139" x2="352" y2="157" style="stroke:Black" />
<line x1="352" y1="157" x2="365" y2="141" style="stroke:Black" />
<line x1="352" y1="157" x2="332" y2="157" style="stroke:Black" />
<line x1="293" y1="133" x2="300" y2="114" style="stroke:Black" />
<line x1="300" y1="114" x2="280" y2="115" style="stroke:Black" />
<line x1="280" y1="115" x2="290" y2="132" style="stroke:Black" />
<line x1="280" y1="115" x2="287" y2="96" style="stroke:Black" />
<line x1="300" y1="114" x2="314" y2="127" style="stroke:Black" />
<line x1="314" y1="127" x2="321" y2="109" style="stroke:Black" />
<line x1="314" y1="127" x2="295" y2="135" style="stroke:Black" />
</svg>
